<?xml version="1.0" encoding="UTF-8" standalone="no"?>
<svg
   xmlns="http://www.w3.org/2000/svg"
   width="60.896832mm"
   height="78.14679mm"
   viewBox="0 0 60.896832 78.14679"
   version="1.1"
   id="svg8">
  <g id="layer1"
     transform="translate(-87.344157,-98.562502)">
    <g
       id="g4783">
      <circle
         r="6.614583"
         cy="142.21877"
         cx="93.95874"
         id="path3825"
         style="fill:#35c0ed;fill-opacity:1;stroke-width:0.26458332" />
      <circle
         r="6.6145835"
         cy="142.13852"
         cx="109.80789"
         id="path3825-4"
         style="fill:#35c0ed;fill-opacity:1;stroke-width:0.26458332" />
      <circle
         r="6.6145835"
         cy="142.28558"
         cx="125.79067"
         id="path3825-4-3"
         style="fill:#35c0ed;fill-opacity:1;stroke-width:0.26458332" />
      <circle
         r="6.6145835"
         cy="142.27216"
         cx="141.6264"
         id="path3825-4-3-6"
         style="fill:#35c0ed;fill-opacity:1;stroke-width:0.26458332" />
      <circle
         r="6.6145835"
         cy="170.09471"
         cx="109.90158"
         id="path3825-4-3-6-6"
         style="fill:#35c0ed;fill-opacity:1;stroke-width:0.26458332" />
      <circle
         r="6.6145835"
         cy="170.05441"
         cx="125.80412"
         id="path3825-4-3-6-6-3"
         style="fill:#35c0ed;fill-opacity:1;stroke-width:0.26458332" />
      <circle
         r="6.6145835"
         cy="156.15674"
         cx="101.90933"
         id="path3825-3"
         style="fill:#35c0ed;fill-opacity:1;stroke-width:0.26458332" />
      <circle
         r="6.6145835"
         cy="156.07649"
         cx="117.75848"
         id="path3825-4-6"
         style="fill:#35c0ed;fill-opacity:1;stroke-width:0.26458332" />
      <circle
         r="6.6145835"
         cy="156.22356"
         cx="133.74127"
         id="path3825-4-3-4"
         style="fill:#35c0ed;fill-opacity:1;stroke-width:0.26458332" />
      <circle
         r="6.6145835"
         cy="128.24049"
         cx="101.9503"
         id="path3825-3-3"
         style="fill:#35c0ed;fill-opacity:1;stroke-width:0.26458332" />
      <circle
         r="6.6145835"
         cy="128.16025"
         cx="117.79945"
         id="path3825-4-6-9"
         style="fill:#35c0ed;fill-opacity:1;stroke-width:0.26458332" />
      <circle
         r="6.6145835"
         cy="128.30731"
         cx="133.78223"
         id="path3825-4-3-4-2"
         style="fill:#35c0ed;fill-opacity:1;stroke-width:0.26458332" />
      <path
         id="path3944"
         d="m 97.398329,114.4375 c 6.354871,5.69946 12.549121,6.67925 17.991671,4.23334 l -1.5875,-2.11667 c -6.99267,-3.66928 -11.78027,-4.1741 -16.404171,-2.11667 z"
         style="fill:#35c0ed;fill-opacity:1" />
      <path
         id="path3944-9"
         d="m 138.40875,114.4375 c -6.35487,5.69946 -12.54912,6.67925 -17.99167,4.23334 l 1.5875,-2.11667 c 6.99267,-3.66928 11.78028,-4.1741 16.40417,-2.11667 z"
         style="fill:#35c0ed;fill-opacity:1;stroke-width:1" />
      <path
         id="path4766"
         d="m 117.77125,116.28959 c -5.83457,-6.21101 -5.46321,-11.98586 0,-17.727088 6.122,6.431298 5.87136,12.146168 0,17.727088 z"
         style="fill:#35c0ed;fill-opacity:1" />
    </g>
  </g>
</svg>
